<svg xmlns="http://www.w3.org/2000/svg" width="20.327" height="18.932" viewBox="0 0 20.327 18.932">
  <g id="Group_42046" data-name="Group 42046" transform="translate(19572.5 -15584.5)">
    <g id="Group_42044" data-name="Group 42044" transform="translate(-19572 15585)">
      <path id="Path_1651" data-name="Path 1651" d="M19.181,11.243V4.8a1.8,1.8,0,0,0-1.8-1.8H4.8A1.8,1.8,0,0,0,3,4.8V17.383a1.8,1.8,0,0,0,1.8,1.8h5.394" transform="translate(-3 -3)" fill="none" stroke="#FFFFFF" stroke-linecap="round" stroke-linejoin="round" stroke-width="1"/>
      <path id="Path_1652" data-name="Path 1652" d="M6,20.246l6.219-6.709" transform="translate(-3.303 -4.065)" fill="none" stroke="#FFFFFF" stroke-linecap="round" stroke-linejoin="round" stroke-width="1"/>
      <circle id="Ellipse_187" data-name="Ellipse 187" cx="1.798" cy="1.798" r="1.798" transform="translate(3.596 3.596)" fill="none" stroke="#FFFFFF" stroke-linecap="round" stroke-linejoin="round" stroke-width="1"/>
    </g>
    <g id="Group_42045" data-name="Group 42045" transform="translate(-19562.561 15593.842)">
      <path id="Path_1656" data-name="Path 1656" d="M5.646,2.328a.4.4,0,0,1,.8,0l.425,2.248a.809.809,0,0,0,.645.645l2.248.425a.4.4,0,0,1,0,.8l-2.248.425a.809.809,0,0,0-.645.645L6.441,9.758a.4.4,0,0,1-.8,0L5.22,7.511a.809.809,0,0,0-.645-.645L2.328,6.441a.4.4,0,0,1,0-.8L4.576,5.22a.809.809,0,0,0,.645-.645Z" transform="translate(-1.998 -1.998)" fill="none" stroke="#FFFFFF" stroke-linecap="round" stroke-linejoin="round" stroke-width="1"/>
      <path id="Path_1657" data-name="Path 1657" d="M20,2V3.618" transform="translate(-10.921 -1.999)" fill="none" stroke="#FFFFFF" stroke-linecap="round" stroke-linejoin="round" stroke-width="1"/>
      <path id="Path_1658" data-name="Path 1658" d="M19.618,4H18" transform="translate(-9.73 -3.19)" fill="none" stroke="#FFFFFF" stroke-linecap="round" stroke-linejoin="round" stroke-width="1"/>
      <circle id="Ellipse_189" data-name="Ellipse 189" cx="0.809" cy="0.809" r="0.809" transform="translate(0.001 7.472)" fill="none" stroke="#FFFFFF" stroke-linecap="round" stroke-linejoin="round" stroke-width="1"/>
    </g>
  </g>
</svg>
